<svg xmlns="http://www.w3.org/2000/svg" width="8" height="12" viewBox="0 0 8 12">
    <path fill="#FFF" fill-rule="nonzero" d="M7.236.002L5.557 0C3.671 0 2.452 1.16 2.452 2.953v1.362H.764c-.146 0-.264.11-.264.245v1.973c0 .135.118.244.264.244h1.688v4.978c0 .136.118.245.264.245H4.92c.146 0 .264-.11.264-.245V6.777h1.974c.145 0 .264-.11.264-.244V4.56a.236.236 0 0 0-.077-.173.275.275 0 0 0-.187-.072H5.183V3.16c0-.555.142-.837.922-.837h1.131c.146 0 .264-.11.264-.245V.247c0-.135-.118-.244-.264-.245z"/>
</svg>
