<svg xmlns="http://www.w3.org/2000/svg" width="12" height="12" viewBox="0 0 12 12">
    <path fill="#FFF" fill-rule="nonzero" d="M1.54 0h8.92C11.307 0 12 .627 12 1.54v8.92c0 .913-.693 1.54-1.54 1.54H1.54C.693 12 0 11.373 0 10.46V1.54C0 .627.693 0 1.54 0zm7.202 1.333a.542.542 0 0 0-.54.54v1.294c0 .297.242.54.54.54h1.356c.297 0 .54-.243.54-.54V1.874a.542.542 0 0 0-.54-.54H8.742zm1.902 3.742H9.588c.1.326.154.672.154 1.03 0 1.995-1.67 3.613-3.73 3.613S2.281 8.1 2.281 6.104c0-.358.054-.703.154-1.03H1.334v5.07c0 .262.214.477.477.477h8.356a.478.478 0 0 0 .477-.477v-5.07zM6.01 3.639c-1.33 0-2.41 1.045-2.41 2.335s1.08 2.335 2.41 2.335c1.331 0 2.41-1.045 2.41-2.335s-1.078-2.335-2.41-2.335z"/>
</svg>
