<svg xmlns="http://www.w3.org/2000/svg" width="43" height="16" viewBox="0 0 43 16">
    <path fill="#524941" fill-rule="evenodd" d="M6.45 15H.12V.908h6.162c2.735 0 4.365 1.338 4.365 3.516 0 1.494-1.103 2.793-2.548 3.008v.175c1.865.137 3.222 1.543 3.222 3.36 0 2.47-1.865 4.033-4.873 4.033zM3.07 3.164v3.584h2.217c1.592 0 2.461-.654 2.461-1.787 0-1.123-.81-1.797-2.217-1.797h-2.46zm0 9.58h2.627c1.7 0 2.617-.713 2.617-2.031 0-1.29-.947-1.973-2.685-1.973H3.07v4.004zm15.41 2.49c-3.31 0-5.302-2.1-5.302-5.625 0-3.486 2.021-5.615 5.302-5.615 3.282 0 5.303 2.12 5.303 5.615 0 3.526-1.992 5.625-5.303 5.625zm0-2.324c1.514 0 2.383-1.21 2.383-3.3 0-2.07-.879-3.292-2.383-3.292-1.513 0-2.382 1.221-2.382 3.291 0 2.1.859 3.301 2.382 3.301zM26.195 15V.117h2.842V15h-2.842zm9.649.166c-2.715 0-4.385-2.129-4.385-5.566 0-3.428 1.68-5.547 4.385-5.547 1.455 0 2.656.703 3.213 1.894h.166V.117h2.841V15h-2.753v-1.69h-.176c-.576 1.163-1.797 1.856-3.291 1.856zm.967-8.73c-1.514 0-2.432 1.2-2.432 3.173 0 1.993.908 3.184 2.432 3.184 1.523 0 2.441-1.201 2.441-3.174 0-1.963-.928-3.183-2.441-3.183z" opacity=".5"/>
</svg>
