<svg xmlns="http://www.w3.org/2000/svg" width="75" height="17" viewBox="0 0 75 17">
    <path fill="#524941" fill-rule="evenodd" d="M14.515 16h-2.032V5.824h-.136l-4.131 9.844h-1.66L2.425 5.824h-.137V16H.257V1.908h2.558L7.298 12.69h.166l4.492-10.78h2.559V16zm7.656-9.053c-1.553 0-2.637 1.094-2.754 2.754h5.371c-.049-1.67-1.064-2.754-2.617-2.754zm2.607 6.182H26.8c-.46 1.894-2.178 3.076-4.61 3.076-3.046 0-4.912-2.09-4.912-5.488 0-3.399 1.905-5.557 4.903-5.557 2.959 0 4.746 2.022 4.746 5.361v.733h-7.51v.117c.068 1.865 1.152 3.047 2.832 3.047 1.27 0 2.139-.459 2.53-1.29zm8.555 3.047c-2.705 0-4.414-2.13-4.414-5.498 0-3.36 1.728-5.489 4.414-5.489 1.455 0 2.686.694 3.262 1.866h.156v-5.84h2.1V16h-2.012v-1.68h-.166c-.635 1.162-1.875 1.856-3.34 1.856zm.596-9.102c-1.768 0-2.842 1.367-2.842 3.604 0 2.256 1.064 3.613 2.842 3.613 1.767 0 2.861-1.377 2.861-3.604 0-2.216-1.103-3.613-2.861-3.613zM42.034 16V5.365h2.09V16h-2.09zM43.08 3.52c-.732 0-1.328-.616-1.328-1.368 0-.761.596-1.377 1.328-1.377.733 0 1.328.616 1.328 1.377 0 .752-.595 1.368-1.328 1.368zm13.096 1.845V16h-2.022v-1.69h-.166c-.517 1.211-1.601 1.895-3.213 1.895-2.353 0-3.662-1.435-3.662-3.935V5.365h2.1v6.358c0 1.718.693 2.539 2.236 2.539 1.7 0 2.627-1.006 2.627-2.676v-6.22h2.1zM59.222 16V5.365h2.021v1.71h.156c.47-1.202 1.543-1.915 2.96-1.915 1.454 0 2.46.752 2.93 1.914h.165c.537-1.162 1.758-1.914 3.233-1.914 2.148 0 3.398 1.299 3.398 3.516V16h-2.1V9.223c0-1.436-.683-2.139-2.06-2.139-1.358 0-2.246.977-2.246 2.227V16h-2.06V9.018c0-1.202-.802-1.934-2.052-1.934-1.279 0-2.246 1.045-2.246 2.412V16h-2.1z" opacity=".5"/>
</svg>
