<svg xmlns="http://www.w3.org/2000/svg" width="71" height="20" viewBox="0 0 71 20">
    <path fill="#524941" fill-rule="evenodd" d="M2.03 2.47v5.391h3.466c1.807 0 2.832-.966 2.832-2.695 0-1.69-1.094-2.695-2.91-2.695H2.029zm0 6.954V15H.27V.908h5.381c2.715 0 4.493 1.66 4.493 4.2 0 1.962-1.065 3.486-2.832 4.042L10.573 15h-2.06L5.496 9.424H2.03zM17.321 5.77c-1.68 0-2.851 1.23-2.978 3.096h5.8c-.039-1.865-1.152-3.096-2.822-3.096zm2.774 6.504h1.68c-.489 1.797-2.13 2.91-4.434 2.91-2.92 0-4.746-2.109-4.746-5.439 0-3.31 1.855-5.459 4.746-5.459 2.842 0 4.57 2.022 4.57 5.293v.645h-7.568v.078c.088 2.08 1.25 3.398 3.037 3.398 1.357 0 2.275-.498 2.715-1.426zm8.71 1.084c1.954 0 3.126-1.484 3.126-3.779S30.75 5.8 28.807 5.8c-1.953 0-3.047 1.485-3.047 3.78s1.094 3.78 3.047 3.78zm.079 5.684c-2.54 0-4.16-1.143-4.414-2.88h1.777c.186.858 1.123 1.415 2.637 1.415 1.885 0 3.008-.928 3.008-2.48v-2.07h-.157c-.664 1.161-1.855 1.816-3.3 1.816-2.725 0-4.415-2.11-4.415-5.264 0-3.154 1.71-5.293 4.415-5.293 1.474 0 2.773.723 3.378 1.856h.157v-1.67h1.601v10.713c0 2.353-1.816 3.857-4.687 3.857zm16.367-14.57V15H43.65v-1.65h-.156c-.527 1.171-1.65 1.836-3.262 1.836-2.363 0-3.593-1.407-3.593-3.897V4.473h1.68v6.406c0 1.894.702 2.773 2.382 2.773 1.856 0 2.871-1.103 2.871-2.949v-6.23h1.68zM48.514 15V.293h1.68V15h-1.68zm8.183-1.29c1.729 0 3.008-1.132 3.008-2.636v-.967l-2.832.186c-1.602.107-2.305.664-2.305 1.719 0 1.074.909 1.699 2.13 1.699zm-.312 1.476c-2.041 0-3.555-1.211-3.555-3.135 0-1.885 1.387-2.969 3.838-3.115l3.037-.186v-.957c0-1.299-.81-2.012-2.383-2.012-1.26 0-2.138.479-2.373 1.309H53.25c.225-1.69 1.885-2.803 4.13-2.803 2.57 0 4.005 1.318 4.005 3.506V15h-1.602v-1.553h-.156c-.684 1.123-1.836 1.739-3.242 1.739zM64.49 15V4.473h1.602v1.562h.156c.313-1.025 1.523-1.748 2.92-1.748.273 0 .625.02.84.049v1.68c-.137-.04-.742-.098-1.074-.098-1.602 0-2.764 1.074-2.764 2.559V15h-1.68z" opacity=".5"/>
</svg>
