<svg xmlns="http://www.w3.org/2000/svg" width="90" height="17" viewBox="0 0 90 17">
    <path fill="#524941" fill-rule="evenodd" d="M.166 12.172h2.461c.156 1.26 1.406 2.07 3.193 2.07 1.66 0 2.862-.85 2.862-2.031 0-1.016-.772-1.611-2.578-2.031l-1.827-.42C1.72 9.184.517 7.914.517 5.814c0-2.558 2.09-4.257 5.245-4.257 2.959 0 5.097 1.699 5.215 4.12H8.564c-.175-1.24-1.27-2.02-2.812-2.02-1.621 0-2.695.78-2.695 1.982 0 .947.713 1.504 2.46 1.904l1.622.371C10 8.56 11.2 9.75 11.2 11.898c0 2.745-2.119 4.454-5.537 4.454-3.232 0-5.371-1.622-5.498-4.18zm18.096-5.147c-1.446 0-2.461 1.036-2.569 2.598h5.03c-.05-1.582-1.006-2.598-2.461-2.598zm2.48 6.036h2.295c-.44 1.943-2.226 3.154-4.746 3.154-3.145 0-5.039-2.08-5.039-5.518 0-3.437 1.924-5.595 5.02-5.595 3.046 0 4.873 2.021 4.873 5.39v.781h-7.461v.127c.058 1.778 1.084 2.891 2.675 2.891 1.202 0 2.032-.44 2.383-1.23zM25.576 16V5.316h2.334v1.729h.166c.46-1.22 1.553-1.943 2.969-1.943 1.475 0 2.5.742 2.95 1.943h.165c.528-1.172 1.758-1.943 3.242-1.943 2.139 0 3.428 1.337 3.428 3.554V16h-2.412V9.271c0-1.376-.654-2.06-1.953-2.06-1.26 0-2.09.918-2.09 2.139V16h-2.354V9.096c0-1.172-.742-1.885-1.933-1.885-1.201 0-2.09.986-2.09 2.295V16h-2.422zm18.154 0V5.316h2.413V16H43.73zm1.202-12.451a1.45 1.45 0 0 1-1.446-1.455c0-.81.655-1.465 1.446-1.465.8 0 1.445.654 1.445 1.465 0 .81-.645 1.455-1.445 1.455zm10.146 12.627c-1.494 0-2.734-.694-3.34-1.865h-.166V16h-2.334V1.186h2.422v5.83h.166c.557-1.162 1.787-1.875 3.252-1.875 2.705 0 4.385 2.1 4.385 5.517 0 3.399-1.69 5.518-4.385 5.518zM54.316 7.2c-1.65 0-2.695 1.328-2.695 3.457 0 2.13 1.035 3.457 2.695 3.457s2.657-1.308 2.657-3.457c0-2.148-1.006-3.457-2.657-3.457zm12.188 9.014c-3.203 0-5.137-2.09-5.137-5.557 0-3.447 1.963-5.556 5.137-5.556 3.183 0 5.137 2.1 5.137 5.556 0 3.467-1.944 5.557-5.137 5.557zm0-2.031c1.69 0 2.646-1.29 2.646-3.526 0-2.226-.966-3.525-2.646-3.525-1.69 0-2.656 1.299-2.656 3.525 0 2.237.966 3.526 2.656 3.526zM74.18 16V1.186h2.422V16H74.18zm9.345.176c-2.705 0-4.394-2.13-4.394-5.528 0-3.378 1.7-5.507 4.394-5.507 1.465 0 2.676.703 3.243 1.875h.166v-5.83h2.421V16h-2.343v-1.69h-.166c-.606 1.172-1.836 1.866-3.32 1.866zm.752-8.975c-1.65 0-2.666 1.309-2.666 3.457 0 2.158 1.006 3.457 2.666 3.457 1.67 0 2.686-1.308 2.686-3.457 0-2.129-1.025-3.457-2.686-3.457z" opacity=".5"/>
</svg>
