<svg xmlns="http://www.w3.org/2000/svg" width="279" height="38" viewBox="0 0 279 38">
    <path fill="#524941" fill-rule="evenodd" d="M.182 27.43h6.152c.39 3.15 3.516 5.175 7.983 5.175 4.15 0 7.154-2.124 7.154-5.078 0-2.539-1.929-4.028-6.446-5.078L10.46 21.4c-6.397-1.44-9.4-4.614-9.4-9.863C1.06 5.14 6.286.892 14.17.892c7.398 0 12.745 4.248 13.038 10.302h-6.03c-.44-3.1-3.174-5.053-7.032-5.053-4.052 0-6.738 1.953-6.738 4.956 0 2.368 1.782 3.76 6.153 4.76l4.052.928c7.154 1.611 10.157 4.59 10.157 9.961 0 6.86-5.298 11.133-13.843 11.133-8.081 0-13.428-4.053-13.745-10.45zM41.148 37H34.85V1.77h22.46v5.445H41.149v10.254h14.77v5.249h-14.77V37zm36.45-35.23h14.21c7.03 0 11.84 4.81 11.84 11.915 0 6.982-4.98 11.767-12.109 11.767h-7.642V37H77.6V1.77zm6.3 5.274v13.184h6.225c4.492 0 7.129-2.344 7.129-6.543 0-4.322-2.564-6.641-7.105-6.641h-6.25zM109.947 37V10.291h5.834v4.15h.415c.733-2.636 3.614-4.59 7.056-4.59.879 0 1.953.098 2.515.27v5.614c-.464-.17-2.076-.341-3.101-.341-3.93 0-6.665 2.441-6.665 6.176V37h-6.055zm32.3.537c-8.009 0-12.843-5.224-12.843-13.891 0-8.619 4.907-13.892 12.842-13.892 7.96 0 12.842 5.249 12.842 13.892 0 8.666-4.859 13.891-12.842 13.891zm0-5.078c4.223 0 6.615-3.223 6.615-8.813 0-5.567-2.417-8.814-6.616-8.814-4.224 0-6.64 3.247-6.64 8.814 0 5.59 2.416 8.813 6.64 8.813zM190.22 37h-6.3V7.215h-10.839V1.77h28.003v5.444h-10.864V37zm28.027-22.437c-3.613 0-6.152 2.588-6.42 6.495H224.4c-.122-3.955-2.514-6.495-6.152-6.495zm6.201 15.088h5.738c-1.1 4.859-5.567 7.886-11.866 7.886-7.861 0-12.597-5.2-12.597-13.794 0-8.594 4.81-13.99 12.548-13.99 7.618 0 12.183 5.055 12.183 13.477v1.954h-18.652v.317c.146 4.443 2.71 7.227 6.69 7.227 3.002 0 5.077-1.1 5.956-3.077zm22.461-1.806h-.415l-5.444 9.204h-6.543l8.642-13.257-8.715-13.452h7.03l5.299 9.18h.415l5.273-9.18h6.665L250.5 23.548l8.716 13.5h-6.836l-5.469-9.203zm19.556-24.097h6.03v6.714h5.713v4.834h-5.713v13.11c0 2.637 1.123 3.809 3.662 3.809.855 0 1.319-.049 2.051-.122v4.736c-.879.171-2.002.293-3.174.293-6.128 0-8.57-2.075-8.57-7.25V15.295h-4.223v-4.834h4.224V3.748z"/>
</svg>
