<svg xmlns="http://www.w3.org/2000/svg" width="51" height="138" viewBox="0 0 51 138">
    <g fill="#FFF" fill-rule="evenodd">
        <path d="M11.694 8.907c3.974 1.69 7.9 3.492 11.913 5.082.895.355 1.727-.985.852-1.517-5.025-3.059-10.587-5.385-16.022-7.599-.848-.345-1.886.401-1.703 1.341.07.366.123.729.184 1.094l.03.175c.823 5.055.687 9.972-.25 15.049-.296 1.607 2.138 1.852 2.488.308.906-3.993.954-10.454.58-14.506l1.928.573z"/>
        <path d="M9.345 9.314c0-.467.432-2.228-.345-4.314 27.36 35.924 43.845 77.585 40.944 132.727-.139-.027-.155-.055-.154-.09C50.796 82.724 34.767 46.286 9.345 9.314z"/>
    </g>
</svg>
