<svg xmlns="http://www.w3.org/2000/svg" xmlns:xlink="http://www.w3.org/1999/xlink" width="66" height="407" viewBox="0 0 66 407">
    <defs>
        <path id="a" d="M25.528 220a62.395 62.395 0 0 1-1.58-2.839c1.61-.686 3.168-1.183 4.601-1.183.255 0 .505.015.752.049.159-.319-.293-.371-.519-.523.299-.105.598-.214.893-.328.43.88.869 1.755 1.315 2.626-1.82.73-3.643 1.462-5.462 2.198m6.36-2.557a776.53 776.53 0 0 1-.254-3.064c2.102-.902 4.164-1.902 6.303-2.72.02 1.12.042 2.236.061 3.357-2.038.805-4.075 1.613-6.11 2.427m-.39-4.744l-.034-.435c.09-.014.18-.034.266-.063-.068.19-.145.357-.232.498m-11.99-5.835c-2.365-6.72-3.969-13.807-4.981-20.636 1.734-.697 3.186-1.727 4.123-3.127a2.947 2.947 0 0 0-.827-.115c-1.183 0-2.426.647-3.546 1.475-.194-1.445-.362-2.88-.506-4.291-1.413-13.878-.788-27.694 1.094-41.357.943-.38 1.894-.736 2.863-1.057 1.078-.36 2.166-.442 3.216-.442l.29.001c-1.825 11.88-2.753 23.894-1.956 35.944.184 2.778.437 5.548.773 8.304-.243.079-.49.164-.728.234.22.52-.412.88.043 1.445l.845-.41c.32 2.429.703 4.846 1.16 7.248-.326.32-.446.69-.155 1.038.11-.079.215-.15.317-.213a106 106 0 0 0 3.085 11.978c.22.677.446 1.348.681 2.012a6.312 6.312 0 0 1-.162.003c-.207 0-.42-.013-.633-.023a11.182 11.182 0 0 0-.634-.024c-.442 0-.863.052-1.216.27-.102.378.58.416.354.851-1.06.15-2.292.336-3.5.892m11.204-4.781c-.544-7.923-.995-15.859-1.37-23.806 2.93-1.517 5.411-1.977 5.894-4.185-1.327.255-3.431 1.47-5.97 2.55-.636-13.84-1.044-27.706-1.305-41.559.247.006.486.139.702.461.105-.439-.342-.637-.708-.805l-.015-.778.092-.052c3.106-.856 5.359-1.43 7.626-2.03l.112 3.63c-1.88.181-4.339-.18-5.432 1.462.375-.081.74-.111 1.095-.111.46 0 .902.05 1.328.1.428.05.838.1 1.234.1.635 0 1.233-.128 1.803-.589.464 15.116.972 30.232 1.406 45.347-.933.597-2.38 1.097-1.141 2.11a3.037 3.037 0 0 0 1.18-.767l.14 5.043c-.22.23-.285.553-.081.977a3.17 3.17 0 0 1 .106-.074c.092 3.436.182 6.878.263 10.315-2.38.74-4.716 1.585-6.959 2.661M28.11 13.274l.075-3.566c1.999-1.258 4.095-2.405 6.28-3.048-.016 1.47-.032 2.938-.046 4.407-1.315.388-2.53.626-3.519.627-.28 0-.542-.02-.784-.06-.461.848-1.183 1.355-2.006 1.64m9.372-3.283a214.963 214.963 0 0 0-.132-3.85 11.113 11.113 0 0 1 1.394.008C36.047 4.026 42.24 3.123 40.971.806 41.41.714 41.773.39 42.117 0c.384 2.468.674 4.96.883 7.467-1.637.83-3.585 1.753-5.519 2.524"/>
        <radialGradient id="b" cx="-334.208%" cy="251.613%" r="2287.443%" fx="-334.208%" fy="251.613%" gradientTransform="matrix(1 0 0 .13636 0 2.173)">
            <stop offset="0%" stop-color="#B9B9BC"/>
            <stop offset="100%" stop-color="#C1C1C3"/>
        </radialGradient>
        <path id="d" d="M28 10c.05-2.317.1-4.636.157-6.953.222-9.343.436-18.704.836-28.047h5.79c-.015 1.286-.033 2.572-.05 3.858a.836.836 0 0 1 .495-.17.61.61 0 0 1 .576.358C38.879-14.338 40.852-7.17 42 .23c-.345.392-.71.719-1.15.812 1.274 2.331-4.95 3.24-2.24 5.376a10.86 10.86 0 0 0-1.4-.008c-.362-8.364-1.213-16.776-2.51-25.38-.123 8.19-.28 16.378-.374 24.566-.006.446-.011.89-.015 1.336C32.115 7.58 30.009 8.735 28 10"/>
        <radialGradient id="e" cx="-828.606%" cy="1663.55%" r="4925.382%" fx="-828.606%" fy="1663.55%" gradientTransform="matrix(1 0 0 .4 0 9.981)">
            <stop offset="0%" stop-color="#BBBBBF"/>
            <stop offset="100%" stop-color="#C3C3C4"/>
        </radialGradient>
        <path id="g" d="M15 139c.055-.413.112-.823.169-1.234 2.032-1.016 4.203-2.092 6.543-3.271-.16.998-.318 2-.468 3l-.283-.001c-1.03 0-2.097.083-3.154.444-.95.323-1.882.68-2.807 1.062m.333-2.39c.421-2.908.895-5.807 1.417-8.7.396-.362.693-.746.814-1.162a.784.784 0 0 1-.27.054.514.514 0 0 1-.322-.112c.41-2.222.847-4.44 1.308-6.652.155-.091.315-.177.479-.254 2.17-1.024 4.368-1.562 6.226-2.441-1.188 5.533-2.284 11.108-3.202 16.716a3.924 3.924 0 0 0-.36-.017c-1.769 0-3.939 1.218-6.09 2.568m3.525-10.851c.384 0 .675.178.966.354 1.022-.667 3.925-2.79 1.85-2.875.278 2.066-3.098.086-3.261 2.596.162-.052.31-.075.445-.075m9.67 9.956c-.21-.324-.445-.457-.687-.463a30.595 30.595 0 0 1-.007-.346c.36.17.797.368.695.81m-.71-1.591c-.11-6.191-.192-12.377-.255-18.56a6.801 6.801 0 0 0 1.2-1.729c.282.094.58.136.896.136 1.451 0 3.238-.91 5.18-1.965.167 6.677.352 13.347.547 20.024-2.223.604-4.432 1.181-7.477 2.04-.032.018-.061.037-.09.054m-7.694-15.51c-.388-.455-.671-.635-.907-.635-.22 0-.4.155-.588.392a353.252 353.252 0 0 1 .977-4.447c.7-.54.665-1.223.441-1.944 2.295-10.015 4.88-19.959 7.335-29.937-.037-23.072.148-46.144.602-69.207.806-.288 1.514-.797 1.966-1.65.237.041.494.062.77.062.97-.001 2.16-.241 3.45-.63a3367.417 3367.417 0 0 0-.134 40.66c.148-.858.3-1.715.44-2.576 2.167-13.355 3.013-26.231 2.696-39.166C39.07 8.762 40.981 7.835 42.585 7c.901 11.087.244 22.438-1.104 33.015-1.646 12.905-4.316 25.528-7.258 38.082.016 1.395.023 2.788.04 4.181.044 3.37.096 6.743.156 10.112-1.187.782-1.822 1.555-1.328 2.153a6.979 6.979 0 0 1 1.35-.97c.102 5.65.225 11.303.364 16.954-2.64.884-5.48 1.308-7.264 2.766-.02-2.354-.04-4.71-.057-7.06a697.89 697.89 0 0 0-1.953 8.603c-1.578.56-3.067.943-4.6 1.417-.27.786.212 1.723-.805 2.362"/>
        <radialGradient id="h" cx="-357.612%" cy="415.758%" r="2402.942%" fx="-357.612%" fy="415.758%" gradientTransform="matrix(1 0 0 .21212 0 3.276)">
            <stop offset="0%" stop-color="#BBBBBF"/>
            <stop offset="100%" stop-color="#C3C3C4"/>
        </radialGradient>
        <path id="j" d="M38.92 240c-1.298-.99-2.772-1.731-4.396-2.118a870.389 870.389 0 0 1-.835-8.04c-2.897-2.932-5.415-6.316-7.595-10.008 1.84-.745 3.686-1.487 5.53-2.225.37.724.746 1.447 1.126 2.167-.075-.842-.147-1.687-.219-2.53 2.06-.825 4.123-1.643 6.186-2.458.146 8.162.246 16.329.283 24.489.001.263-.026.505-.08.723m-14.425-23.04c-1.734-3.308-3.223-6.814-4.495-10.425 1.223-.563 2.47-.75 3.543-.903.23-.44-.462-.479-.359-.862.357-.22.783-.273 1.231-.273.21 0 .426.011.642.024.215.01.431.023.641.023.055 0 .11-.001.164-.003 1.28 3.618 2.791 7.053 4.43 10.409-.3.115-.602.226-.904.332.228.154.686.207.525.53a5.584 5.584 0 0 0-.761-.05c-1.45 0-3.028.504-4.657 1.198m7.78-2.817c-.047-.566-.093-1.133-.138-1.7.088-.144.166-.312.235-.504-.087.028-.177.049-.27.063-.272-3.431-.524-6.87-.76-10.308 2.27-1.089 4.634-1.945 7.044-2.694.099 4.132.19 8.258.27 12.388-2.166.83-4.254 1.842-6.382 2.755"/>
        <radialGradient id="k" cx="-568.866%" cy="874.455%" r="3656.19%" fx="-568.866%" fy="874.455%" gradientTransform="matrix(1 0 0 .46342 0 4.692)">
            <stop offset="0%" stop-color="#BBBBBF"/>
            <stop offset="100%" stop-color="#C3C3C4"/>
        </radialGradient>
    </defs>
    <g fill="none" fill-rule="evenodd" opacity=".7" transform="translate(0 25)">
        <path fill="#FFF" d="M.244 317.454c1.273 20.112 8.628 39.541 19.923 56.084 2.298 3.363 5.174 7.1 9.315 8.137 4.677 1.171 8.736-.974 12.208-4.002 7.158-6.24 12.295-15.3 16.05-23.919 3.991-9.163 6.183-19.1 7.325-29.005 1.104-9.58 1.778-20.448-1.221-29.749-1.816-5.63-4.992-10.363-9.853-13.759-4.073-2.844-9.77-4.346-14.074-1.376-.753.52-.235 1.51.478 1.677 4.158.983 7.97 1.72 11.524 4.29 3.886 2.81 6.097 7.287 7.356 11.81 2.55 9.168 1.506 19.637.314 28.948-1.21 9.463-3.753 18.72-7.646 27.422-1.88 4.204-4.222 8.158-6.863 11.919-2.841 4.045-6.25 8.545-10.819 10.653-5.261 2.428-9.17-4.695-11.51-8.234-2.811-4.255-5.174-8.766-7.287-13.407-3.97-8.723-6.597-17.988-8.128-27.442-1.588-9.802-2.248-20.49.675-30.092 1.32-4.34 3.652-8.173 7.006-11.207 3.31-2.996 7.504-3.875 11.475-5.575 1.661-.712 1.698-3.336-.062-3.964-8.21-2.93-16.636 4.418-20.864 10.892-5.71 8.739-5.96 19.824-5.322 29.899"/>
        <path fill="#FFF" d="M16.144 274.128c-.452-1.514-2.503-1.834-3.316-.44-1.094 1.875-.817 4.284-.74 6.384.027.729.085 3.283 1.336 3.144.746-.084 1.15-.646 1.433-1.305.262.528.812.934 1.418.968 2.62.146 4.879-.657 7.387-1.317 3.476-.916 6.89-1.28 10.475-1.197 6.663.154 11.967 3.532 18.284 4.615 1.004.173 2.004-.818 1.391-1.834-.793-1.313-1.833-2.414-3.027-3.354.215-.134.395-.316.504-.557 2.18-4.808.804-9.76-2.353-13.358.281.01.573-.127.751-.386 3.29-4.757-.598-10.812-5.077-14.456.154-.077.273-.228.263-.41-.375-6.8-5.29-14.441-12.743-14.62-3.64-.09-6.64 1.133-9.003 3.982-1.696 2.048-2.466 4.957-.225 6.846.475.4 1.024.403 1.498 0 .784-.665 1.415-1.406 1.81-2.378 1.415-3.478 4.54-4.08 7.826-3.26 4.115 1.026 6.924 5.67 9.468 8.996-1.183-.842-2.37-1.501-3.443-1.907-7.457-2.822-19.69-1.516-23.878 6.35-.328.617.068 1.645.878 1.55 6.715-.8 12.027-4.941 19.141-3.782 3.116.508 5.812 2.425 7.962 4.655 2.144 2.223 2.545 5.232 3.852 7.858a16.063 16.063 0 0 0-4.492-3.045c-7.935-3.58-18.773-.907-24.946 5.167l-.002-.004c-.924-1.034-2.012-1.168-2.436-2.668-.292-1.04.093-2.036-.344-3.078-.06-.14-.222-.192-.355-.207-2.097-.245-2.691 2.518-2.555 4.121.18 2.1 2.156 4.996 4.485 4.78.192-.017.37-.062.535-.125.14.067.298.11.487.093 5.768-.52 10.846-3.561 16.603-4.183 7.396-.798 14.508 4.13 13.254 12.17l-.016.193c-3.91-2.085-8.723-2.994-12.678-3.524-6.074-.815-15.504-.118-19.886 4.945.545-1.735.969-3.77.474-5.422"/>
        <path fill="#FFF" d="M22.31 304.05c-1.227 7.622-5.238 13.974-7.298 21.277-.079.277.246.555.5.386a16.236 16.236 0 0 0 2.028-1.633c.89 1.222 2.294 1.907 3.954 2.03 2.12.158 4.507-.541 4.776 2.484.079.884.655 1.123 1.38 1.511 2.454 1.307 5-5.016 6.98-1.995 1.653 2.52 1.836 5.246 5.245 5.862.525.095 1.183-.042 1.434-.586.94-2.035.734-3.746.628-5.956-.157-3.292 7.859-2.974 9.95-4.269.182-.112.13-.357-.056-.427l-.012-.005c-2.587-6.646-5.567-12.832-7.145-19.85-.854-3.794-1.239-7.658-1.48-11.533-.216-3.436.806-7.601-.403-10.816-.204-.543-.915-.698-1.243-.164-1.675 2.733-1.135 6.547-1.06 9.65.097 4.107.741 8.192 1.595 12.201 1.458 6.848 3.993 14.412 8.246 20.115-2.78-.523-6.793-.276-8.875.948-2.798 1.648-1.5 5.122-2.003 7.762-2.14-1.455-2.801-5.53-5.359-6.779-2.133-1.042-3.866.516-4.805 2.265-1.047 1.948-.535.73-1.079-.744-.275-.746-.83-1.502-1.522-1.91-.735-.432-1.618-.514-2.44-.341-2.097.442-3.598-.252-5.347-.849 4.357-5.038 6.337-12.556 7.326-18.79 1.14-7.19 1.622-17.634-3.21-23.647-.457-.569-1.277-.056-1.312.546-.207 3.512.703 7.087 1.071 10.576.443 4.215.209 8.508-.464 12.68"/>
        <mask id="c" fill="#fff">
            <use xlink:href="#a"/>
        </mask>
        <path fill="url(#b)" d="M25.528 220a62.395 62.395 0 0 1-1.58-2.839c1.61-.686 3.168-1.183 4.601-1.183.255 0 .505.015.752.049.159-.319-.293-.371-.519-.523.299-.105.598-.214.893-.328.43.88.869 1.755 1.315 2.626-1.82.73-3.643 1.462-5.462 2.198m6.36-2.557a776.53 776.53 0 0 1-.254-3.064c2.102-.902 4.164-1.902 6.303-2.72.02 1.12.042 2.236.061 3.357-2.038.805-4.075 1.613-6.11 2.427m-.39-4.744l-.034-.435c.09-.014.18-.034.266-.063-.068.19-.145.357-.232.498m-11.99-5.835c-2.365-6.72-3.969-13.807-4.981-20.636 1.734-.697 3.186-1.727 4.123-3.127a2.947 2.947 0 0 0-.827-.115c-1.183 0-2.426.647-3.546 1.475-.194-1.445-.362-2.88-.506-4.291-1.413-13.878-.788-27.694 1.094-41.357.943-.38 1.894-.736 2.863-1.057 1.078-.36 2.166-.442 3.216-.442l.29.001c-1.825 11.88-2.753 23.894-1.956 35.944.184 2.778.437 5.548.773 8.304-.243.079-.49.164-.728.234.22.52-.412.88.043 1.445l.845-.41c.32 2.429.703 4.846 1.16 7.248-.326.32-.446.69-.155 1.038.11-.079.215-.15.317-.213a106 106 0 0 0 3.085 11.978c.22.677.446 1.348.681 2.012a6.312 6.312 0 0 1-.162.003c-.207 0-.42-.013-.633-.023a11.182 11.182 0 0 0-.634-.024c-.442 0-.863.052-1.216.27-.102.378.58.416.354.851-1.06.15-2.292.336-3.5.892m11.204-4.781c-.544-7.923-.995-15.859-1.37-23.806 2.93-1.517 5.411-1.977 5.894-4.185-1.327.255-3.431 1.47-5.97 2.55-.636-13.84-1.044-27.706-1.305-41.559.247.006.486.139.702.461.105-.439-.342-.637-.708-.805l-.015-.778.092-.052c3.106-.856 5.359-1.43 7.626-2.03l.112 3.63c-1.88.181-4.339-.18-5.432 1.462.375-.081.74-.111 1.095-.111.46 0 .902.05 1.328.1.428.05.838.1 1.234.1.635 0 1.233-.128 1.803-.589.464 15.116.972 30.232 1.406 45.347-.933.597-2.38 1.097-1.141 2.11a3.037 3.037 0 0 0 1.18-.767l.14 5.043c-.22.23-.285.553-.081.977a3.17 3.17 0 0 1 .106-.074c.092 3.436.182 6.878.263 10.315-2.38.74-4.716 1.585-6.959 2.661M28.11 13.274l.075-3.566c1.999-1.258 4.095-2.405 6.28-3.048-.016 1.47-.032 2.938-.046 4.407-1.315.388-2.53.626-3.519.627-.28 0-.542-.02-.784-.06-.461.848-1.183 1.355-2.006 1.64m9.372-3.283a214.963 214.963 0 0 0-.132-3.85 11.113 11.113 0 0 1 1.394.008C36.047 4.026 42.24 3.123 40.971.806 41.41.714 41.773.39 42.117 0c.384 2.468.674 4.96.883 7.467-1.637.83-3.585 1.753-5.519 2.524" mask="url(#c)"/>
        <mask id="f" fill="#fff">
            <use xlink:href="#d"/>
        </mask>
        <path fill="url(#e)" d="M28 10c.05-2.317.1-4.636.157-6.953.222-9.343.436-18.704.836-28.047h5.79c-.015 1.286-.033 2.572-.05 3.858a.836.836 0 0 1 .495-.17.61.61 0 0 1 .576.358C38.879-14.338 40.852-7.17 42 .23c-.345.392-.71.719-1.15.812 1.274 2.331-4.95 3.24-2.24 5.376a10.86 10.86 0 0 0-1.4-.008c-.362-8.364-1.213-16.776-2.51-25.38-.123 8.19-.28 16.378-.374 24.566-.006.446-.011.89-.015 1.336C32.115 7.58 30.009 8.735 28 10" mask="url(#f)"/>
        <mask id="i" fill="#fff">
            <use xlink:href="#g"/>
        </mask>
        <path fill="url(#h)" d="M15 139c.055-.413.112-.823.169-1.234 2.032-1.016 4.203-2.092 6.543-3.271-.16.998-.318 2-.468 3l-.283-.001c-1.03 0-2.097.083-3.154.444-.95.323-1.882.68-2.807 1.062m.333-2.39c.421-2.908.895-5.807 1.417-8.7.396-.362.693-.746.814-1.162a.784.784 0 0 1-.27.054.514.514 0 0 1-.322-.112c.41-2.222.847-4.44 1.308-6.652.155-.091.315-.177.479-.254 2.17-1.024 4.368-1.562 6.226-2.441-1.188 5.533-2.284 11.108-3.202 16.716a3.924 3.924 0 0 0-.36-.017c-1.769 0-3.939 1.218-6.09 2.568m3.525-10.851c.384 0 .675.178.966.354 1.022-.667 3.925-2.79 1.85-2.875.278 2.066-3.098.086-3.261 2.596.162-.052.31-.075.445-.075m9.67 9.956c-.21-.324-.445-.457-.687-.463a30.595 30.595 0 0 1-.007-.346c.36.17.797.368.695.81m-.71-1.591c-.11-6.191-.192-12.377-.255-18.56a6.801 6.801 0 0 0 1.2-1.729c.282.094.58.136.896.136 1.451 0 3.238-.91 5.18-1.965.167 6.677.352 13.347.547 20.024-2.223.604-4.432 1.181-7.477 2.04-.032.018-.061.037-.09.054m-7.694-15.51c-.388-.455-.671-.635-.907-.635-.22 0-.4.155-.588.392a353.252 353.252 0 0 1 .977-4.447c.7-.54.665-1.223.441-1.944 2.295-10.015 4.88-19.959 7.335-29.937-.037-23.072.148-46.144.602-69.207.806-.288 1.514-.797 1.966-1.65.237.041.494.062.77.062.97-.001 2.16-.241 3.45-.63a3367.417 3367.417 0 0 0-.134 40.66c.148-.858.3-1.715.44-2.576 2.167-13.355 3.013-26.231 2.696-39.166C39.07 8.762 40.981 7.835 42.585 7c.901 11.087.244 22.438-1.104 33.015-1.646 12.905-4.316 25.528-7.258 38.082.016 1.395.023 2.788.04 4.181.044 3.37.096 6.743.156 10.112-1.187.782-1.822 1.555-1.328 2.153a6.979 6.979 0 0 1 1.35-.97c.102 5.65.225 11.303.364 16.954-2.64.884-5.48 1.308-7.264 2.766-.02-2.354-.04-4.71-.057-7.06a697.89 697.89 0 0 0-1.953 8.603c-1.578.56-3.067.943-4.6 1.417-.27.786.212 1.723-.805 2.362" mask="url(#i)"/>
        <mask id="l" fill="#fff">
            <use xlink:href="#j"/>
        </mask>
        <path fill="url(#k)" d="M38.92 240c-1.298-.99-2.772-1.731-4.396-2.118a870.389 870.389 0 0 1-.835-8.04c-2.897-2.932-5.415-6.316-7.595-10.008 1.84-.745 3.686-1.487 5.53-2.225.37.724.746 1.447 1.126 2.167-.075-.842-.147-1.687-.219-2.53 2.06-.825 4.123-1.643 6.186-2.458.146 8.162.246 16.329.283 24.489.001.263-.026.505-.08.723m-14.425-23.04c-1.734-3.308-3.223-6.814-4.495-10.425 1.223-.563 2.47-.75 3.543-.903.23-.44-.462-.479-.359-.862.357-.22.783-.273 1.231-.273.21 0 .426.011.642.024.215.01.431.023.641.023.055 0 .11-.001.164-.003 1.28 3.618 2.791 7.053 4.43 10.409-.3.115-.602.226-.904.332.228.154.686.207.525.53a5.584 5.584 0 0 0-.761-.05c-1.45 0-3.028.504-4.657 1.198m7.78-2.817c-.047-.566-.093-1.133-.138-1.7.088-.144.166-.312.235-.504-.087.028-.177.049-.27.063-.272-3.431-.524-6.87-.76-10.308 2.27-1.089 4.634-1.945 7.044-2.694.099 4.132.19 8.258.27 12.388-2.166.83-4.254 1.842-6.382 2.755" mask="url(#l)"/>
    </g>
</svg>
