<svg xmlns="http://www.w3.org/2000/svg" width="77" height="274" viewBox="0 0 77 274">
    <defs>
        <radialGradient id="a" cx="-680.763%" cy="278.537%" r="1252.292%" fx="-680.763%" fy="278.537%" gradientTransform="matrix(1 0 0 .26543 0 2.046)">
            <stop offset="0%" stop-color="#FFF"/>
            <stop offset="100%" stop-color="#C1C1C3"/>
        </radialGradient>
    </defs>
    <g fill="none" fill-rule="evenodd" opacity=".7">
        <path fill="#FFF" d="M18.466 268.02c12.727 8.58 29.787 7.553 42.379-.687 13.598-8.896 19.115-25.735 14.618-41.086-2.795-9.542-10.305-15.993-15.6-24.095-.788-1.207-3.19-.717-2.635.903 2.673 7.806 9.541 13.234 12.912 20.724 3.536 7.858 3.403 17.133.49 25.13-5.447 14.96-22.618 22.86-37.873 20.334-15.738-2.607-27.426-18.156-27.863-33.507-.224-7.881 2.805-15.477 7.417-21.77 2.333-3.182 5.19-5.885 8.35-8.243 3.02-2.252 6.562-3.678 9.38-6.186.926-.825.424-2.46-.862-2.522-7.297-.36-14.352 5.898-18.829 11.04-5.174 5.943-8.464 13.022-9.831 20.742-2.693 15.21 5.368 30.742 17.947 39.222"/>
        <path fill="#FFF" d="M25.84 191.46c-.322-.947-1.757-1.554-2.39-.466-1.064 1.829-1.34 3.868-1.866 5.881-.428 1.636-1.107 3.345.085 4.804.213.26.592.367.918.303.929-.184 1.541-.727 1.976-1.426.412.422 1.036.643 1.795.53 3.29-.493 6.432-1.872 9.75-2.433 3.511-.594 7.061-.639 10.604-.358 3.705.293 7.248 1.417 10.922 1.817.918.1 1.432-.71 1.33-1.45.267-4.462-1.009-9.186-1.85-13.543-.349-1.808-1.473-2.848-2.902-3.502.282-2.506-1.448-5.106-3.883-6.144-2.441-1.04-5.381-2.105-8.038-2.09-3.123.019-5.662.37-8.256 1.597-.37.174-.72.956-.591 1.316.596 1.699 4.98.94 7.562.69 4.017-.39 9.534.076 11.146 3.953a24.78 24.78 0 0 0-1.425-.29c-4.487-.784-8.922-1-13.466-.69-2.362.16-5.069.415-7.634.995.074-.38.094-.464.051-.215.031-.11.069-.219.111-.324l.024-.066.088-.123c.182-.28.36-.54.484-.857.29-.751-.039-1.637-.705-2.08a1.756 1.756 0 0 0-.544-.244c1.735-3.591 3.033-6.84 7.829-7.962 2.085-.488 4.365.019 6.32.732 1.965.717 3.185 2.523 5.125 3.15.435.141 1.048-.158 1.024-.664-.123-2.742-2.39-4.452-5.138-5.357 1.94-1.356-1.8-4.983-3.062-5.508-2.665-1.109-6.783-.083-7.855 2.839-.29.79-.524 2.081.534 2.442 1.16.394 2.125-1.55 2.761-2.151 1.61-1.523 3.914-.873 5.243.6.21.233.492.867.85 1.365-2.287-.493-4.689-.5-6.367-.133-4.36.955-10.06 6.302-9.079 11.138-1.123.913-1.42 2.968-.808 4.178l.092.126c-.857.32-1.67.69-2.413 1.129-1.652.974-.821 3.286 1.083 3.068 3.087-.355 6.123-1.547 9.214-2.071 3.727-.632 7.542-.723 11.313-.56 1.578.068 3.144.26 4.707.472 3.552.481 3.728 2.214 4.38 5.16.567 2.56.988 5.216 1.827 7.716-4.849-2.57-11.146-2.999-16.448-2.861-3.204.082-6.354.606-9.452 1.385-1.135.286-3.42.737-5.024 1.621.416-1.8.65-3.673.048-5.44"/>
        <path fill="#FFF" d="M48.497 215.242c.715 2.739 1.75 5.4 2.975 7.948.592 1.231 1.28 2.414 1.981 3.586.546.91 2.527 2.713 2.11 3.805-.115.297.275.552.508.342l.74-.665a.562.562 0 0 0 .131-.666c-2.452-4.838-4.674-9.556-5.92-14.869-1.178-5.02-.785-10.11-1.646-15.128-.129-.76-1.223-.792-1.471-.097-1.727 4.843-.672 10.906.592 15.744M23.36 231.81c4.106-3.683 5.917-10.903 7.087-16.19 1.185-5.355 2.752-13.104.105-18.208-.297-.574-1.131-.552-1.344.09-.81 2.442-.763 5.168-.852 7.73-.106 3.095-.525 6.186-1.138 9.213-.574 2.836-1.381 5.62-2.318 8.346-.952 2.767-2.398 5.414-2.888 8.324-.13.766.853 1.138 1.347.695"/>
        <path fill="#FFF" d="M35.292 232.22c1.527-.858 2.823.334 2.834 1.883.01 1.555-1.336 2.527-2.618 3.09-.135.058-.271.11-.409.156-1.515-1.512-2.099-3.843.193-5.129zm14.397 2.126c-1.343-.006-2.718-.442-3.703-1.372-1.587-1.5.196-3.355 1.92-3.293 1.897.068 2.44 2.726 2.102 4.114a3.978 3.978 0 0 1-.18.549l-.14.002zm-27.683-3.335c.613 5.255 7.339 9.524 12.644 8.684 2.848 1.866 6.928 1.412 10.14.6 2.706-.686 5.409-2.256 6.666-4.617 3.425-.643 6.464-3.12 5.285-7.053-.122-.409-.71-.294-.652.134.367 2.784-1.657 4.553-4.032 5.25.136-.664.169-1.372.072-2.127-.47-3.646-5.025-5.236-7.508-2.506-2.5 2.75.729 5.828 3.492 6.332.246.044.495.077.75.1-.557.59-1.237 1.077-1.919 1.467-2.647 1.515-6.608 2.154-9.563 1.414a6.892 6.892 0 0 0 2.193-2.227c1.673-2.694-.13-7.169-3.714-6.53-3.815.68-5.139 4.633-3.179 7.748-1.69-.073-3.398-.693-4.768-1.518-2.189-1.316-3.402-3.41-4.401-5.67-.39-.88-1.605-.334-1.506.519z"/>
        <path fill="url(#a)" d="M36.97 162l-.009-.03c-.112-.397-.212-.798-.32-1.197a.724.724 0 0 1-.555.284.676.676 0 0 1-.366-.11c-6.727-4.263-16.984-4.228-20.808-12.21-3.637-7.59 4.349-16.107 10.853-18.353 1.962-.677 4.03-1.106 6.13-1.473-.372-5.624-.598-11.238-.806-16.756-.142-3.758-.245-7.52-.33-11.281-2.654-1.253-5.093-2.901-7.074-5.416-.782-.993-.853-1.957-.341-3.103 1.433-3.205 4.176-4.85 7.203-6.024-.04-8.658.06-17.317.288-25.969.17-6.418.396-12.834.644-19.248-.052-.29-.04-.566.032-.816.414-10.588.908-21.172 1.45-31.754.146-2.85.303-5.697.467-8.544h4.419c-.106 3.537-.22 7.074-.343 10.61-.362 10.323-.747 20.646-1.068 30.972 2.545 3.704 2.61 8.517 2.217 13.076-.458 5.332-2.581 13.971 1.756 18.225 3.476 3.407 6.621 7.873 2.57 12.403-1.895 2.118-4.211 3.676-6.915 4.537-.114.037-.23.072-.345.108.016 2.624.045 5.248.09 7.872 6.482 2.63 13.93 3.731 18.315 9.657 4.933 6.664 3.35 14.822-3.446 19.558-4.079 2.842-8.52 3.969-13.23 4.902.724 9.894 1.444 19.795 1.412 29.672a7.064 7.064 0 0 0-1.89.408m-4.779-29.022c-5.737 1.31-12.278 3.732-13.525 10.11-2.014 10.302 12.861 9.52 17.528 16.006-2.137-8.462-3.293-17.277-4.003-26.116m3.726-30.111c.078 3.124.17 6.25.299 9.374.215 5.253.571 10.515.952 15.78 2.738-.506 5.416-1.16 7.855-2.376 6.016-3.001 12.036-10.335 5.226-16.255-4.088-3.555-9.313-4.866-14.332-6.523m-5.3-11.035c-.735.42-1.402.931-1.963 1.581.63.615 1.301 1.162 2.004 1.661-.017-1.08-.029-2.16-.041-3.242m5.127-16.695c-.029 3.135-.044 6.27-.044 9.407 1.083-.447 2.12-1.025 2.892-1.884 2.91-3.24-.44-4.6-1.812-6.212a24.287 24.287 0 0 1-1.036-1.311"/>
    </g>
</svg>
