<svg xmlns="http://www.w3.org/2000/svg" width="352" height="263" viewBox="0 0 352 263">
    <g fill="#FFF" fill-rule="evenodd" opacity=".7">
        <path d="M324.82 155.875c.584 3.522-.972 5.594-3.903 6.733-3.94 1.533-8.78 1.753-12.917 2.577-8.61 1.715-17.228 3.402-25.843 5.1-17.358 3.422-34.717 6.845-52.079 10.252-8.86 1.738-17.719 3.48-26.579 5.216-4.028.79-8.06 1.576-12.089 2.363-2.675.524-4.933 1.398-7.579.299-2.268-.942-2.149-.977-2.783-3.511-.35-1.394-.56-2.834-.832-4.246-8.485-44.065-16.35-88.342-25.707-132.229a1.137 1.137 0 0 0-.189-.436c3.877-6.878 14.91-6.649 21.374-7.834a4708.18 4708.18 0 0 1 25.7-4.647c17.466-3.106 34.917-6.302 52.388-9.386 8.602-1.518 17.203-3.034 25.815-4.49 3.937-.666 7.935-1.671 11.929-1.916 3.183-.194 5.96 1.03 6.878 4.766.54 2.202.828 4.499 1.235 6.728a3202.893 3202.893 0 0 0 11.35 59.143 3819.675 3819.675 0 0 0 12.397 58.929c.476 2.186 1.07 4.38 1.435 6.589zm2.032-3.49c-1.184-5.43-2.402-10.854-3.583-16.286a2929.125 2929.125 0 0 1-6.894-32.632 3677.74 3677.74 0 0 1-13.183-67.281c-1.174-6.316-.975-17.257-8.164-19.064-2.877-.725-5.897.021-8.704.505-5.11.88-10.22 1.768-15.33 2.649a7123.193 7123.193 0 0 0-66.117 11.702c-10.7 1.948-21.403 3.89-32.106 5.831-6.905 1.253-17.162 1.328-20.664 9.286-.349.792.083 1.607.65 1.916 7.602 44.145 16.723 88.098 25.193 132.088.608 3.153.923 7.53 3.44 9.743 2.363 2.076 5.541.793 8.098.294 9.671-1.89 19.343-3.777 29.017-5.66 19.777-3.85 39.554-7.691 59.334-11.524 9.698-1.879 19.393-3.77 29.093-5.636 4.58-.881 9.168-1.726 13.744-2.633 2.568-.508 5.316-1.056 6.555-3.88 1.263-2.879.271-6.435-.379-9.417z"/>
        <path d="M340.598 161.3c.061.344.204.6.391.778 1.358 8.821 3.328 17.541 5.11 26.285.846 4.154 1.894 8.334 2.534 12.523.42 2.739.653 5.165-1.739 6.634-2.054 1.263-4.308 1.444-6.636 1.882-16.48 3.1-32.96 6.2-49.439 9.302-32.96 6.2-65.9 12.503-98.855 18.728-4.478.845-11.147 3.03-12.936-3.76-1.198-4.554-1.413-9.56-2.277-14.208-1.445-7.768-3.034-15.836-5.688-23.357.05-.163.076-.343.034-.562-6.276-32.902-13.737-65.569-19.89-98.51a3584.993 3584.993 0 0 1-8.957-49.917c-.612-3.553-2.032-7.813-1.785-11.389.371-5.384 6.837-4.93 10.713-5.675 7.276-1.402 14.55-2.812 21.826-4.21 29.646-5.698 59.33-11.196 88.999-16.779 7.179-1.351 14.352-2.753 21.552-3.99 3.427-.589 6.862-1.136 10.311-1.589 3.279-.43 7.958-1.88 11.217-.831 4.704 1.513 5.553 7.188 6.808 11.674a523.132 523.132 0 0 1 3.273 12.317c2.092 8.24 3.971 16.534 5.718 24.857 7.638 36.382 13.254 73.197 19.716 109.798zm-177.06 9.549c-14.874 8.247-29.721 16.552-44.579 24.834-7.191 4.008-14.361 8.063-21.558 12.06-6.414 3.562-13.126 6.842-19.374 10.812-.282-.144-.616-.149-.877.096-.618.58-1.256 1.191-1.924 1.76-.23.16-.466.309-.695.471a.898.898 0 0 0-.266.3c-.614.45-1.255.84-1.931 1.116-3.396 1.392-5.396-1.08-7.244-4.015-2.98-4.735-5.658-9.706-8.202-14.732-4.352-8.606-8.279-17.463-12.306-26.25-8.496-18.532-17.619-36.876-25.6-55.668-3.057-7.198 3.313-9.256 7.87-11.635 4.423-2.311 8.844-4.631 13.257-6.968l24.272-12.853 49.277-26.092c1.842-.976 5.263-3.756 7.405-3.555 1.926.181 4.161 3.124 5.191 4.645.822 1.215 1.403 2.74 2.074 4.055 2.625 5.141 5.263 10.274 7.879 15.42 5.23 10.29 10.226 20.725 15.491 30.993.21.41.523.612.845.663 1.256 6.396 2.524 12.79 3.818 19.179 2.384 11.772 4.688 23.592 7.177 35.364zm-24.772 61.808A1337.104 1337.104 0 0 1 99.97 251.67a1448.153 1448.153 0 0 1-9.596 4.472c-3.605 1.663-7.891 4.466-11.987 3.385-6.1-1.61-9.045-9.392-11.594-15.03a1825.842 1825.842 0 0 0-20.11-42.954 1688.68 1688.68 0 0 0-21.227-42.321c-7.093-13.665-14.966-27.07-20.593-41.548-.968-2.49-2.403-4.907-1.398-7.405.82-2.039 2.343-2.738 4.001-3.88 3.114-2.143 6.268-4.22 9.43-6.278 5.867-3.82 11.849-7.437 17.858-10.988 12.26-7.247 24.74-14.032 37.295-20.66 14.221-7.506 28.563-14.748 42.926-21.937 3.453-1.728 7.848-4.465 11.811-2.728 3.558 1.561 5.377 6.031 6.978 9.574 3.842 8.5 7.471 17.108 11.183 25.675.15.346.373.546.617.635a3368.396 3368.396 0 0 0 5.597 29.553c-4.65-9.756-9.538-19.387-14.35-29.044-2.71-5.44-5.431-10.876-8.228-16.265-1.598-3.08-3.081-6.231-6.592-6.425-3.824-.212-7.791 3.005-11.023 4.725-5.389 2.866-10.777 5.733-16.166 8.598L64.673 86.85c-10.042 5.341-20.092 10.67-30.129 16.025-4.89 2.61-9.841 5.134-14.66 7.892-2.564 1.467-4.76 3.145-4.597 6.755.183 4.076 3.008 8.366 4.618 11.904 2.78 6.104 5.631 12.17 8.433 18.264 5.222 11.355 10.443 22.71 15.682 34.056 5.592 12.108 11.083 24.322 17.84 35.735 1.894 3.197 3.868 7.625 7.687 8.05 2.897.321 5.357-1.578 7.326-3.754 7.41-3.317 14.47-7.801 21.578-11.76 7.192-4.007 14.411-7.956 21.609-11.95 14.69-8.153 29.391-16.285 44.066-24.47 1.2 5.595 2.442 11.178 3.766 16.738a.656.656 0 0 0-.197.636c1.377 7.066 3.285 13.992 4.956 20.984-9.307 9.71-22.398 14.838-33.885 20.703zm204.18-71.082a1.46 1.46 0 0 0 .052-.74c-6.049-35.12-11.75-70.397-18.796-105.335-1.8-8.932-3.75-17.835-5.937-26.678-1.855-7.506-3.434-15.724-6.455-22.826C309.45.449 305.505-.36 300.542.093c-7.732.704-15.392 2.01-23.015 3.412-31.795 5.85-63.533 12.011-95.302 17.993-8.092 1.524-16.192 2.994-24.29 4.487-3.778.697-7.557 1.387-11.334 2.097-2.332.437-5.548.52-7.28 2.517-3.481 4.01-.157 13.25.652 17.902 1.286 7.402 2.603 14.8 3.944 22.195a553.581 553.581 0 0 0-7.695-17.621c-2.26-4.958-4.808-10.766-10.13-12.11-5.986-1.51-12.214 3.076-17.27 5.633A3177.338 3177.338 0 0 0 87.345 57.54c-14.523 7.482-28.94 15.193-43.15 23.347C30.35 88.832 16.008 96.76 3.041 106.334c-4.39 3.241-2.117 7.662-.251 12.451 3.17 8.134 7.122 15.883 11.162 23.545 8.43 15.993 16.8 32.01 24.842 48.237a1693.518 1693.518 0 0 1 23.084 48.453c4.704 10.3 10.083 27.078 23.023 22.438 8.036-2.88 15.797-7.207 23.524-10.912 8.081-3.876 16.13-7.833 24.142-11.87 8.213-4.138 16.405-8.333 24.54-12.647 5.901-3.13 11.674-6.413 16.095-11.739.63 2.746 1.211 5.506 1.692 8.294.988 5.731.43 15.391 6.538 17.948 2.332.977 4.946.639 7.3.268 5.053-.794 10.075-1.873 15.103-2.806l27.57-5.118a28153.85 28153.85 0 0 0 56.747-10.604c18.887-3.545 37.973-6.51 56.738-10.653 7.962-1.757 7.014-8.384 5.438-15.921-2.376-11.376-4.448-22.88-7.383-34.123z"/>
        <path d="M108.163 185.558c-17.613-5.451-34.816-12.2-51.785-19.863 6.15 1.191 12.342 3.338 18.29 4.855l4.846 1.235a201.287 201.287 0 0 0 20.246 5.16c1.458.291 1.508-2.127.124-2.476-5.846-1.478-11.694-2.947-17.54-4.419a208.774 208.774 0 0 1-9.349-3.066c5.949.4 11.88 1.203 17.785 2.39 1.33.266 1.663-2.004.428-2.495a278.17 278.17 0 0 0-12.433-4.599c2.646.227 5.291.492 7.937.817 1.332.163 1.762-2.095.438-2.554-2.06-.716-4.117-1.435-6.176-2.151 2.305.223 4.61.552 6.92.986 1.179.222 1.824-1.804.733-2.458-1.802-1.082-3.534-1.79-5.522-2.265-.815-.195-1.222.462-1.202 1.178a81.56 81.56 0 0 0-9.395-.333c-1.236.026-1.833 2.032-.433 2.528 1.303.463 2.609.916 3.914 1.371-2.565-.194-5.13-.356-7.697-.46-1.297-.053-1.862 2.176-.445 2.598a302.926 302.926 0 0 1 10.736 3.421 146.85 146.85 0 0 0-13.214-.778c-.646-.008-1.074.512-1.162 1.086-5.001-1.363-10.05-2.564-15.04-2.826-1.252-.066-1.533 1.751-.396 2.314 12.102 6.006 24.505 11.24 37.074 15.83-13.575-3.34-27.051-7.27-40.365-11.873-1.377-.477-1.905 1.547-.672 2.24 11.814 6.64 24.163 11.634 36.7 15.959a6384.783 6384.783 0 0 1-29.25-6.527c-1.125-.256-1.364 1.649-.358 2.088a569.864 569.864 0 0 0 31.807 12.768c-7.302-1.91-14.548-4.288-22.063-3.386-1.109.133-1.175 2.04-.112 2.408 5.649 1.963 11.3 3.91 16.956 5.844a152.691 152.691 0 0 1-13.544-2.77c-.986-.248-1.388 1.418-.587 1.973 4.916 3.405 10.095 5.7 15.724 6.965.892.2 1.19-1.49.295-1.72a43.528 43.528 0 0 1-9.248-3.52 142.434 142.434 0 0 0 18.345 2.78c1.204.104 1.623-1.898.4-2.33a2375.434 2375.434 0 0 0-20.763-7.21c9.167.958 18.119 5.363 27.421 5.468 1.151.013 1.665-1.885.398-2.318a648.449 648.449 0 0 1-32.94-12.23c14.08 3.183 28.15 6.42 42.232 9.587 1.187.268 1.567-1.921.391-2.282-15.948-4.898-31.934-9.9-47.303-16.855 15.994 4.931 32.138 9.066 48.453 12.26 1.222.239 1.612-1.97.401-2.345M238.684 159.038c-12.37-11.115-24.225-22.872-35.813-34.976 8.894 7.385 17.778 14.785 26.67 22.173 1.355 1.124 2.546-1.109 1.346-2.285a1415.38 1415.38 0 0 1-11.692-11.567 227.572 227.572 0 0 0 8.335 6.24c1.431 1.02 2.658-1.157 1.373-2.332-.283-.258-.562-.523-.843-.782 1.2.95 2.694-.999 1.635-2.218l-9.22-10.597 3.799 2.693c1.363.965 2.715-.837 1.74-2.237l-3.788-5.444c1.053-.023 1.955-1.391.98-2.449-1.518-1.644-2.915-2.22-4.98-1.958-1.09.136-1.319 1.621-.71 2.494l1.748 2.514-6.852-4.84c-1.274-.898-2.869.904-1.723 2.216l3.454 3.956c-3.123-2.739-6.248-5.477-9.364-8.228-1.191-1.052-2.713.915-1.666 2.142a267.3 267.3 0 0 0 6.911 7.773 222.877 222.877 0 0 1-11.532-10.977c-1.205-1.231-3.058.458-1.868 1.833 4.281 4.95 8.708 9.722 13.214 14.4-7.019-5.796-14.03-11.6-21.018-17.443-1.108-.926-2.554.866-1.54 1.98 13.193 14.519 26.828 28.577 41.089 41.766-18.205-12.444-33.058-30.92-50.667-44.38-1.14-.871-2.09.692-1.408 1.809 11.851 19.365 29.573 32.051 45.623 46.644a224.074 224.074 0 0 1-18.35-13.542 226.433 226.433 0 0 1-12.749-11.31c-3.649-3.488-7.302-6.768-11.99-8.044-1.024-.28-2.096.984-1.198 2.034a448.256 448.256 0 0 0 37.704 39.03c-12.911-8.589-24.616-19.476-36.069-30.396-1.002-.955-2.235.757-1.414 1.817a312.477 312.477 0 0 0 27.103 30.604l-23.598-16.956c-1.046-.752-2.116.655-1.348 1.732 5.29 7.413 11.363 13.9 17.713 20.084l-12.637-7.76c-.84-.515-2.026.636-1.165 1.498.058.06.12.117.178.177h.002c4.49 4.488 9.119 8.8 13.721 13.137.378.356.906-.315.547-.702-2.581-2.786-5.156-5.582-7.755-8.347 4.929 3.096 9.857 6.197 14.792 9.28 1.19.744 2.145-.902 1.11-1.884-7.006-6.644-14.028-13.335-20.246-20.9l32.21 23.305c1.262.913 2.379-1.042 1.22-2.07-10.213-9.06-19.877-18.865-28.984-29.29 10.823 9.748 22.04 18.843 34.639 25.522 1.27.674 1.99-1.404.982-2.28-15.28-13.252-29.751-27.63-43.33-43.047 2.984 1.872 5.61 4.474 8.297 6.98 4.002 3.729 8.081 7.337 12.286 10.767 8.61 7.023 17.65 13.305 27.018 18.901 1.057.63 2.54-.774 1.466-1.882-16.152-16.641-35.726-29.373-49.815-48.358 18.586 15.393 34.265 35.145 55.468 46.208 1.257.656 1.924-1.361.959-2.228"/>
    </g>
</svg>
