<svg xmlns="http://www.w3.org/2000/svg" width="270" height="293" viewBox="0 0 270 293">
    <g fill="#FFF" fill-rule="evenodd" opacity=".7">
        <path d="M62.637 253.878c-16.089-1.808-32.364-4.39-48.546-5.024.503-5.496.926-11.041.9-16.563 14.163 2.571 28.87 3.304 43.177 4.853 14.496 1.57 28.98 3.263 43.462 4.941a9845.523 9845.523 0 0 1 86.859 10.444 8113.826 8113.826 0 0 1 48.473 6.219.57.57 0 0 0-.125.234c-1.384 5.202-1.809 11.023-2.066 16.444a6900.77 6900.77 0 0 0-172.134-21.548zm175.677 5.285a.565.565 0 0 0-.071-.266c1.044-.035 1.195-1.717.058-1.863-57.848-7.431-115.755-14.401-173.73-20.766-8.282-.909-16.56-1.85-24.844-2.742-8.251-.888-16.584-2.182-24.882-2.426-.314-.332-1.058-.177-1.144.371-.9 5.732-1.262 11.582-1.552 17.376-.032.634.451 1.006.941 1.05.09.106.217.192.399.224 14.293 2.508 28.98 3.404 43.402 5.029a6817.074 6817.074 0 0 1 43.405 5.03 6692.126 6692.126 0 0 1 134.815 17.453c.93.13 1.345-.809 1.09-1.484 1.113-5.47 2.189-11.425 2.113-16.986zM144.144 105.27c-7.006-.519-11.548-6.014-10.69-13.167.846-7.05 6.293-11.087 12.892-11.125.136.285.419.5.834.474 6.225-.388 11.175 8.748 10.091 14.246-1.238 6.274-7.033 10.023-13.127 9.572zm2.796-25.496c-.014.003-.021.012-.035.015-7.572-2.423-14.488 4.697-15.367 12.079-1.011 8.492 4.534 14.982 12.877 15.4 7.304.365 14.109-4.673 14.95-12.286.676-6.118-5.404-16.726-12.425-15.208z"/>
        <path d="M154.572 90.83c-.534-.571-1.074-1.137-1.611-1.707.277-.266.397-.698.096-1.089-1.088-1.409-2.247-2.272-3.903-2.851-.418-.146-.903.13-1.081.513-.494-.396-.993-.784-1.482-1.184-.656-.536-1.654.452-1.06 1.115l.628.7c-.558-.436-1.12-.866-1.676-1.306-.67-.53-1.545.397-1.038 1.091.636.87 1.29 1.726 1.951 2.574-1.073-.934-2.15-1.862-3.213-2.804-.635-.564-1.618.447-1.047 1.099.852.972 1.71 1.938 2.566 2.907a217.311 217.311 0 0 0-3.853-3.019c-.603-.46-1.512.405-.963 1.012 1.246 1.38 2.499 2.752 3.747 4.129-1.532-1.298-3.064-2.596-4.593-3.897-.566-.481-1.418.387-.919.965.475.55.955 1.096 1.44 1.635-.258.147-.406.58-.124.864a87.79 87.79 0 0 0 2.927 2.814 339.532 339.532 0 0 1 5.241 5.315c-1.417-.928-2.718-2.237-3.905-3.198-1.813-1.47-3.627-2.939-5.424-4.43-.472-.39-1.016.37-.57.775a96.956 96.956 0 0 1 5.979 5.93 92.06 92.06 0 0 1-4.973-3.677c-.462-.366-1.035.267-.706.742 1.7 2.46 3.652 4.46 6.038 6.2.446.324.957-.365.52-.707a26.979 26.979 0 0 1-3.091-2.816 89.604 89.604 0 0 0 5.104 3.492c.477.302 1.182-.28.75-.785-.391-.457-.794-.896-1.191-1.342 1.135.937 2.261 1.745 3.776 2.025.522.096.705-.482.519-.868l.102.079c.505.373 1.045-.159.95-.65.584.126 1.217-.664.74-1.213a296.022 296.022 0 0 0-3.813-4.298 215.928 215.928 0 0 1 3.949 3.514c.669.612 1.73-.485 1.116-1.173-.516-.579-1.033-1.154-1.55-1.733.534.471 1.066.942 1.6 1.411.666.585 1.721-.487 1.1-1.155a135.013 135.013 0 0 1-4.797-5.443l3.747 2.99c.701.558 1.761-.477 1.127-1.184a4.991 4.991 0 0 0-.03-.033c.68.216 1.483-.707.9-1.33"/>
        <path d="M132.228 108.608c-4.392-3.985-6.82-9.63-6.766-15.561.05-5.41 2.053-9.654 4.924-13.968 7.91-7.18 19.679-9.43 28.423-2.194 8.914 7.374 10.442 22.088 2.759 31.008-7.549 8.763-21.146 8.148-29.34.715zm25.048-35.297c-8.406-4.886-20.032-3.456-26.623 3.721a.563.563 0 0 0-.51.134c-7.177 6.132-8.372 18.15-4.363 26.307 4.17 8.488 13.74 13.783 23.135 12.972 21.782-1.88 26.367-32.667 8.36-43.134z"/>
        <path d="M152.873 77.118c-.361-.08-.599.498-.28.695 7.52 4.637 10.141 11.877 8.518 20.6-.213 1.148 1.526 1.34 1.76.215 1.682-8.112-.787-19.469-9.998-21.51M160.286 102.493c-.948 1.449-2.25 2.596-3.82 3.444-1.12.605-.428 2.294.845 1.796 2.18-.853 3.656-2.675 4.1-4.806.114-.55-.806-.92-1.125-.434"/>
        <path d="M133.523 137.01a.593.593 0 0 0-.408-.283c-19.148-3.814-32.032-26.483-31.802-45.35.244-20.139 15.912-36.44 34.456-41.583 17.056-4.73 35.138 3.534 45.501 17.494 11.119 14.977 12.143 35.704 2.115 51.675-10.364 16.507-31.692 23.888-49.862 18.046zm52.809-65.606c-9.078-16.126-27.373-27.36-45.959-24.672-19.336 2.797-37.75 19.143-40.348 39.216-1.458 11.262 1.627 22.63 7.394 32.194 5.531 9.174 13.89 17.755 24.655 19.661a.58.58 0 0 0 .357.315c17.088 5.817 36.597 1.084 48.68-12.9 12.782-14.795 14.75-36.891 5.22-53.814z"/>
        <path d="M258.001 200.447c-34.393-4.57-68.803-9.027-103.224-13.383-.302-4.296-1.186-8.595-1.706-12.873-.453-3.73-.806-7.472-1.29-11.198 16.657 2.045 33.315 4.088 49.972 6.132 16.956 2.08 33.911 4.164 50.866 6.255.088.01.171.01.25.004a.87.87 0 0 0 .022.138c2.143 8.316 3.516 16.82 5.595 25.135a.92.92 0 0 0-.485-.21zm-3.021 25.528a.837.837 0 0 0-.695-.523C190.375 216.891 126.4 208.82 62.359 201.3c-8.952-1.052-17.905-2.09-26.858-3.13-8.962-1.043-18.028-2.536-27.056-2.808.22-1.837.436-3.674.646-5.512 15.65 2.96 31.788 4.046 47.59 5.993 16.035 1.977 32.064 3.996 48.1 5.967 31.843 3.914 63.688 7.81 95.528 11.741 18.096 2.235 36.19 4.5 54.286 6.73 1.282.158 1.533-1.875.25-2.03-34.078-4.131-68.156-8.249-102.234-12.37.745-2.879.863-5.913 1.226-8.862.327-2.656 1.002-5.48.723-8.16 16.083 2.06 32.162 4.138 48.239 6.245 18.325 2.402 36.645 4.836 54.962 7.299.08.01.156.012.228.005a13168 13168 0 0 0-3.01 23.567zm-8.222 57.888c-3.043 6.742-9.8 6.664-16.048 5.985-6.884-.746-13.762-1.561-20.641-2.342-13.76-1.563-27.521-3.125-41.282-4.686-27.242-3.093-54.496-6.107-81.72-9.355-13.69-1.634-27.37-3.36-41.022-5.292a1254.313 1254.313 0 0 1-20.45-3.06c-3.177-.504-6.351-1.021-9.524-1.553-3.59-.604-7.941-.816-10.807-3.325-5.047-4.42-2.758-13.437-2.105-19.253l1.769-15.752c15.612 3.072 31.813 4.087 47.598 6.003 16.102 1.955 32.203 3.916 48.303 5.874 31.972 3.887 63.946 7.772 95.913 11.7 18.168 2.233 36.337 4.455 54.503 6.712h.005c-.408 3.247-.81 6.496-1.22 9.743-.757 5.972-.76 13.037-3.272 18.601zM5.535 219.828c15.868 2.808 31.923 4.71 47.883 6.925 15.844 2.199 31.69 4.37 47.55 6.451 31.95 4.194 63.927 8.154 95.922 11.973 17.953 2.144 35.91 4.27 53.881 6.261 1.11.124 1.33-1.632.216-1.757A8423.78 8423.78 0 0 1 59.12 225.969c-17.81-2.411-35.589-5.343-53.45-7.334l.152-1.359c.113-.998.232-1.996.348-2.993 15.884 2.666 31.935 4.417 47.904 6.494 16.063 2.09 32.12 4.221 48.186 6.295l95.704 12.355 54.393 7.02h.03c-.297 2.386-.598 4.77-.896 7.156l-.01-.003c-64.198-7.602-128.372-15.418-192.55-23.188-8.971-1.086-17.94-2.185-26.91-3.282-8.95-1.095-17.954-2.576-26.966-3.019l.481-4.283zm1.14-9.814c31.861 4.812 63.961 8.302 95.925 12.366 32.168 4.09 64.336 8.183 96.5 12.3 17.966 2.3 35.933 4.597 53.9 6.892-.111.885-.225 1.77-.335 2.653l-.059.473c-.012-.002-.022-.007-.035-.008-64.035-8.235-128.065-16.513-192.116-24.63-18.038-2.286-36.073-5.017-54.185-6.648.132-1.132.27-2.264.405-3.398zm.847-6.999c31.775 4.821 63.932 7.514 95.834 11.413a7931.043 7931.043 0 0 1 95.594 12.268c18.095 2.434 36.185 4.916 54.256 7.531a.815.815 0 0 0 .754-.256c-.242 1.92-.489 3.839-.729 5.76-63.925-8.118-127.849-16.244-191.77-24.399-18.19-2.32-36.37-4.9-54.609-6.8.221-1.837.446-3.678.67-5.517zm.787-6.512c7.736 1.52 15.714 2.07 23.54 2.96 8.037.915 16.073 1.845 24.107 2.787 16.068 1.885 32.131 3.803 48.19 5.757 31.89 3.878 63.767 7.875 95.62 12.046 18.103 2.371 36.2 4.786 54.292 7.243.358.049.626-.092.793-.315-.247 1.943-.499 3.884-.744 5.828a.851.851 0 0 0-.67-.463c-63.882-8.785-127.813-17.206-191.872-24.606-17.944-2.073-35.903-4.453-53.93-5.669.227-1.855.452-3.711.674-5.568zm2.624-25.62c15.68 2.733 31.68 4.038 47.475 5.962 16.053 1.955 32.103 3.933 48.15 5.935 1.81.226 3.62.456 5.431.682-.944 1.95-1.136 4.209-1.445 6.365-.51 3.553-1.114 7.227-1.216 10.817-15.424-1.865-30.847-3.729-46.271-5.598-8.936-1.082-17.87-2.18-26.803-3.287-8.982-1.112-17.983-2.584-27.024-3.106.668-5.92 1.267-11.843 1.703-17.77zm.042-1.38c1.95-3.669 3.542-7.527 5.246-11.316 1.72-3.825 3.856-7.652 5.194-11.637.073.067.16.124.28.154 7.324 1.824 15.161 2.193 22.645 3.11l22.684 2.782 44.681 5.48 9.518 1.168c-.831 3.652-3.06 7.524-4.358 10.917-1.424 3.724-3.082 7.44-4.182 11.273-.035.123-.044.24-.037.349-15.715-1.95-31.432-3.878-47.152-5.784-18.095-2.193-36.292-5.122-54.492-6.262a.936.936 0 0 0-.027-.234zM32.15 49.104c1.003-8.09 1.97-16.195 3.163-24.26.631-4.262 1.926-8.42 6.584-9.473 3.42-.774 7.168-.031 10.595.287 15.63 1.447 31.25 2.97 46.86 4.617a4150.119 4150.119 0 0 1 40.304 4.472c-.96 4.918-1.836 9.964-2.094 14.969-21.276 3.351-39.81 20.706-44.193 42.3-2.66 13.097 1.238 27.28 7.525 38.725 5.316 9.678 13.208 18.202 23.522 22.17a.453.453 0 0 0-.14.23c-1.163 4.47-2.22 9.612-2.295 14.244l-49.23-5.968-24.751-3c-8.419-1.022-17.11-2.769-25.606-2.833 2.724-32.215 5.776-64.39 9.756-96.48zm23.738-42.99c3.14-2.879 6.26-3.575 10.44-3.092 4.278.494 8.549 1.085 12.821 1.629 16.13 2.052 32.266 4.059 48.4 6.082 32.142 4.03 64.284 8.06 96.425 12.092 4.52.566 9.04 1.13 13.56 1.7 4.569.576 9.428 1.067 13.319 3.794 3.981 2.79 6.444 7.128 9.64 10.735-.568-.2-1.152-.383-1.755-.54-7.453-1.943-15.444-2.474-23.057-3.545a3755.06 3755.06 0 0 0-25.384-3.481c-33.631-4.493-67.324-8.566-101.072-12.083a4059.276 4059.276 0 0 0-51.002-4.983c-3.737-.341-8.352-1.327-12.642-1.252 3.779-1.683 7.125-4.141 10.307-7.056zM143.6 160.006l-6.099-.74c.618-1.716.724-3.66.958-5.459.29-2.231.575-4.462.6-6.715 0-.017-.008-.034-.01-.052 2.142.26 4.3.383 6.459.376-1.2 3.915-1.875 8.48-1.908 12.59zm-6.187 1.225l5.891.722c-.651 7.68-.927 16.272.542 23.738l-9.066-1.137c1.678-7.545 2.852-15.58 2.633-23.323zm12.459-.466c-1.483-.18-2.966-.36-4.448-.538.786-4.079 1.164-8.683 1.063-12.83a53.835 53.835 0 0 0 5.459-.395c-1.17 4.26-2.215 9.38-2.074 13.763zm8.715-120.113c0 .023.01.041.011.064a52.832 52.832 0 0 0-6.153-1.186c.586-4.372 1.184-8.73 1.936-13.075 1.683.2 3.365.41 5.048.612-.005.025-.017.041-.02.067a138.669 138.669 0 0 0-.822 13.518zm-7.46-1.272a52.576 52.576 0 0 0-5.707-.288c1.177-4.395 2.02-8.88 2.79-13.363 1.525.18 3.05.355 4.574.535-.857 4.324-1.46 8.71-1.656 13.116zm-12.26.148c1.012-4.811 1.672-9.735 2.41-14.596 1.816.21 3.634.411 5.451.624-.989 4.48-1.927 8.992-2.485 13.55a51.704 51.704 0 0 0-5.377.422zM125.115 141.58a.712.712 0 0 0-.403-.035c-17.864-8.419-29.257-28.537-30.43-48.32-1.326-22.332 15.338-43.085 35.713-49.727 21.088-6.874 44.975 1.282 57.686 19.603 12.337 17.782 12.392 41.388.522 59.526-13.864 21.181-40.432 27.959-63.088 18.953zm11.697 11.539c-.371 1.943-.924 3.972-.854 5.96l-5.456-.662c1.171-3.94.936-8.508 1.104-12.575a.386.386 0 0 0-.12-.313c2.22.626 4.482 1.08 6.762 1.394-.635 2.03-1.037 4.107-1.436 6.196zm-3.796 31.213c-2.757-.345-5.513-.692-8.27-1.036 1.27-3.996 2.189-8.128 3.224-12.19.901-3.544 2.059-7.1 2.252-10.759l5.94.73c-1.072 7.763-1.84 15.516-3.146 23.255zm-7.732-40.925c.001-.036-.01-.07-.017-.105a47.378 47.378 0 0 0 5.92 2.138.392.392 0 0 0-.322.31c-.978 3.929-2.285 8.399-1.842 12.488l-5.529-.67c1.197-4.445 1.655-9.6 1.79-14.16zm-2.144 39.59c-.007.035.003.064.001.098-2.951-.368-5.9-.744-8.851-1.11 2.02-4.176 3.485-8.712 5.13-13.054 1.125-2.972 2.853-6.265 3.136-9.524 2.149.264 4.299.528 6.448.79-1.872 7.612-4.366 15.1-5.864 22.8zm-11.013 9.118c.306-2.622.085-5.937.947-8.517 3.321.416 6.64.84 9.962 1.263-1.117 5.594-1.443 11.527-2.087 17.189l-9.975-1.207c.609-2.857.814-5.83 1.153-8.728zm18.35 11.087l-8.054-.974c.904-5.552 1.809-11.595 1.494-17.255 3.017.383 6.036.764 9.053 1.148.003.004.01.006.013.01-1.313 5.583-2.026 11.365-2.506 17.071zm11.158 1.35l-9.425-1.14c.69-5.69 1.453-11.415 1.869-17.134.01-.005.023-.007.033-.012 3.223.408 6.445.818 9.668 1.225-1.068 5.486-2.029 11.485-2.145 17.062zm3.66-18.68c.018-.06.04-.115.044-.188.193-3.979-.322-8.023-.45-12.004-.125-3.86-.21-7.721-.38-11.58l5.861.72c.072 7.89.777 16.443 2.692 24.025-2.588-.327-5.178-.648-7.767-.973zm6.685 10.918c-.384 2.943-.964 5.94-.85 8.912l-7.9-.957c1.203-5.444 1.685-11.5 1.942-17.077 2.767.35 5.534.698 8.3 1.051-1.027 2.496-1.144 5.42-1.492 8.071zm114.895-131.8c-2.646 36.306-7.707 72.428-14.608 108.16-33.594-4.05-67.186-8.118-100.778-12.19a.529.529 0 0 0-.106-.191c1.288-4.243 1.628-9.52 1.617-13.906 11.797-1.709 23.077-7.31 31.222-16.256 15.377-16.89 19.082-41.55 8.9-62.076-6.833-13.775-19.19-23.545-33.344-27.498a.73.73 0 0 0 .07-.227c.543-4.465.854-9.007.956-13.501 0-.028-.01-.048-.012-.074 2.004.24 4.008.49 6.011.734-.265.085-.484.297-.519.675-.401 4.36-1.597 9.677-.78 13.987.094.493.82.647 1.007.124 1.486-4.135 1.15-9.545 1.438-13.907a.823.823 0 0 0-.41-.79c8.91 1.083 17.82 2.184 26.722 3.34a3750.965 3750.965 0 0 1 48.029 6.553c6.64.95 15.74.76 21.335 4.971 6.19 4.66 3.735 15.403 3.25 22.072zm-11.66 175.98a13139.152 13139.152 0 0 0 4.808-38.563c.055-.445-.14-.764-.425-.945.135-.112.22-.294.195-.541-.906-8.608-3.273-17.268-5.389-25.631a.796.796 0 0 0-.695-.61c.065-.188.08-.394.05-.592a.974.974 0 0 0 .384-.611c6.864-33.883 11.606-68.182 14.377-102.643.563-7.001 2.165-14.907.89-21.88-.5-2.725-1.657-4.852-3.293-6.499.212-.364.198-.837-.255-1.152-5.211-3.624-7.758-9.76-12.563-13.81-5.243-4.42-12.426-4.725-18.894-5.532l-50.173-6.264c-33.58-4.191-67.155-8.439-100.743-12.57L69.17 1.365c-3.335-.41-6.975-1.128-10.21.222-2.936 1.225-4.967 3.996-7.402 5.954-3.58 2.88-7.648 4.766-11.948 6.216-.307.104-.403.393-.361.667-5.514 2.569-5.63 9.664-6.333 14.92-5.15 38.495-9.344 77.176-11.863 115.935-.15-.008-.302.055-.417.232-2.275 3.52-3.806 7.628-5.538 11.449-1.785 3.932-3.645 7.86-5.047 11.956-.344.035-.664.259-.736.722-2.315 15-3.52 30.222-5.212 45.305l-2.501 22.312c-.64 5.71-2.034 11.948-1.104 17.695.793 4.897 3.781 8.001 8.435 9.293 6.397 1.774 13.269 2.4 19.818 3.428 14.527 2.282 29.102 4.26 43.692 6.096 29.7 3.736 59.464 6.983 89.205 10.385 14.675 1.679 29.351 3.362 44.027 5.044 7.338.84 14.676 1.68 22.014 2.522 4.949.567 10.546 1.605 15.26-.662 4.857-2.335 6.666-7.596 7.523-12.628 1.396-8.204 2.112-16.573 3.155-24.83.532-4.209 1.059-8.419 1.59-12.628z"/>
        <path d="M132.959 117.76c-7.379-3.498-12.018-9.753-12.99-18.038-.982-8.365 1.602-15.193 5.487-22.36.225-.416-.372-.835-.705-.544-6.453 5.626-7.008 16.298-5.902 24.207 1.114 7.974 6.072 15.078 13.636 17.898.748.278 1.193-.822.474-1.163"/>
        <path d="M152.313 123.778c-10.02 1.322-20.267-1.001-27.801-8.01-7.03-6.54-9.953-15.595-10.185-24.96-.01-.458-.744-.428-.795.01-2.451 20.818 18.774 38.587 38.899 33.752.494-.119.404-.86-.118-.792"/>
        <path d="M134.646 59.815c-13.18 3.331-23.907 15.3-25.928 29.237-.997 6.884.259 14.05 3.165 20.259 2.769 5.916 7.499 12.424 13.638 14.81.362.14.622-.345.334-.599-4.945-4.362-9.503-8.153-12.507-14.314-2.908-5.964-4.171-12.804-3.315-19.477 1.76-13.735 12.056-24.96 24.807-28.516.835-.233.672-1.619-.194-1.4"/>
        <path d="M173.757 74.66c-6.357-9.263-17.616-14.922-28.877-14.048-10.15.788-21.934 7.223-25.712 17.171-.074.194.186.349.316.182 6.49-8.373 14.03-15.021 25.107-15.866 11.046-.843 21.61 4.576 28.018 13.46.552.765 1.675-.13 1.148-.899M176.623 88.43c-.138-.6-1.046-.484-.945.145 1.61 10.073-1.256 21.541-9.76 27.756-.337.247.007.873.377.65 9.133-5.519 12.622-18.539 10.328-28.551"/>
        <path d="M156.287 67.477c-.59-.218-.915.606-.367.886 11.52 5.891 17.371 16.782 15.688 29.529-.119.892 1.19 1.02 1.376.169 2.749-12.573-4.545-26.099-16.697-30.584"/>
        <path d="M152.238 58.036c-.553-.01-.68.805-.108.879 9.079 1.178 17.007 5.767 22.117 13.516 5.425 8.226 6.339 17.267 6.635 26.853.02.66 1.04.603 1.125-.015 2.537-18.167-9.839-40.856-29.77-41.233"/>
        <path d="M184.902 83.224c-.151-.342-.7-.202-.633.187 1.805 10.502 2.24 20.27-2.714 30.107-4.32 8.58-11.68 15.14-20.367 18.689-.837.342-.29 1.66.548 1.316 8.853-3.632 16.348-10.302 20.83-18.998 4.684-9.088 6.52-21.72 2.336-31.301"/>
        <path d="M175.944 112.71c-5.282 11.88-19.478 18.592-31.512 16.8-.52-.078-.594.717-.102.832 12.137 2.848 28.063-4.567 32.913-17.077.344-.887-.916-1.416-1.3-.555M144.938 133.454c-8.702.17-16.791-.803-23.663-6.629-5.36-4.544-10.966-9.585-13.025-16.597-.193-.659-1.28-.34-1.143.333 1.54 7.566 8.19 13.065 13.77 17.74 7.272 6.09 15.107 6.813 24.207 6.163.654-.046.484-1.023-.146-1.01M178.502 69.39c-13.04-19.3-42.267-23.011-59.372-7.185-.246.228.042.614.315.415 9.088-6.584 19.695-10.143 30.802-8.977 11.252 1.181 20.456 7.607 27.54 16.322.375.46 1.046-.086.715-.576M211.222 70.766c.817-4.313 1.332-8.662 1.748-13.031.364-3.828.914-7.797.734-11.655 6.349 1.308 12.879 1.943 19.29 2.833 6.283.871 12.583 2.02 18.947 1.904-.002.013-.006.024-.007.037-.64 7.641-1.99 15.3-2.424 22.948-12.677-1.394-25.535-2.512-38.288-3.036zm42.522-19.69c.037-.608-.407-.966-.865-1.013-.002-.486-.352-1.024-.966-1.01-13.167.271-26.16-3.907-39.261-4.751-.782-.05-1.018.828-.597 1.282-.652 4.13-.643 8.437-1.028 12.602-.387 4.175-.816 8.338-.972 12.528-.793-.03-.965 1.162-.157 1.273 13.087 1.793 26.416 2.96 39.6 3.813a.933.933 0 0 0 .773-.304c.32-.025.635-.233.741-.662 1.909-7.652 2.256-15.907 2.732-23.758z"/>
        <path d="M231.379 66.146a16.895 16.895 0 0 0-1.222-4.123c.04.047.08.084.12.131.652.807 1.917-.203 1.258-1.007-1.034-1.262-2.117-2.067-3.628-2.652-.722-.28-1.41.596-.92 1.238a14.783 14.783 0 0 1 2.137 3.838c-2.753-2.92-5.433-5.926-7.93-9.07-.566-.714-1.824-.028-1.4.85 1.646 3.404 3.484 6.719 5.453 9.947-2.91-2.796-5.385-6.038-7.257-9.684-.458-.892-1.675-.33-1.394.618.895 3.022 2.013 5.953 3.29 8.816-.798-.805-1.594-1.613-2.39-2.421-.389-.394-1.227-.202-1.093.482a28.413 28.413 0 0 0 1.64 5.475c.212.511.913.172.76-.338a38.868 38.868 0 0 1-.825-3.316 343.893 343.893 0 0 1 3.76 4.002c.52.563 1.61.055 1.226-.745a92.253 92.253 0 0 1-2.735-6.31 42.36 42.36 0 0 0 8.153 8.263c.792.608 1.664-.421 1.167-1.208a213.35 213.35 0 0 1-4.584-7.638 203.102 203.102 0 0 0 5.058 5.449c.492.508 1.494.242 1.356-.597M235.66 134.45c.268-2.472.026-5.44-1.345-7.336-1.38-1.908-3.974-2.88-6.363-3.49a.306.306 0 0 0-.138-.093 8.35 8.35 0 0 0-1.914-.376l-.068-.014a.768.768 0 0 0-.348.005c-3.776-.104-7.43 2.308-9.103 5.798.294-1.446.784-2.785 1.504-3.794 2.178-3.05 6.634-4.109 10.128-3.694 4.28.509 8.302 3.181 8.565 7.875.1 1.795-.258 3.514-.919 5.118zm-13.676 6.233c-4.05-1.856-5.971-6.516-4.16-10.708 1.436-3.323 4.395-4.664 7.584-5.33.07.038.138.08.227.1 2.396.524 5.315 1.289 6.944 3.244 1.551 1.864 1.57 4.762 1.14 7.12-1.077 5.91-6.651 7.903-11.735 5.574zm16.562-12.092c-.517-4.846-4.69-8.053-9.19-8.82-4.203-.716-9.303.27-12.274 3.606-2.94 3.302-3.433 9.65-1.326 13.438.11.197.28.262.438.24 1.23 2.818 3.791 5 7 5.954 3.12.927 6.113.513 8.393-1.034.262.155.599.164.926-.102 3.8-3.097 6.57-8.234 6.033-13.282zM62.266 121.756c-5.412 1.03-9.922-2.371-11.515-7.517-.902-2.917-1.287-6.405.007-9.27 1.6-3.54 4.77-4.27 8.184-4.653.348-.039.566-.227.674-.467 2.156.073 4.31.277 6.234 1.367 2.814 1.594 4.034 4.484 4.543 7.594.924 5.642-2.274 11.834-8.127 12.946zm10.35-12.201c-.772-7.786-6.522-12.59-14.024-11.071-3.264.286-6.45.89-8.558 3.715-2.208 2.958-2.47 6.835-1.807 10.36 1.307 6.961 6.522 12.429 13.89 11.432 6.759-.913 11.156-7.794 10.498-14.436z"/>
        <path d="M60.617 117.805c-3.353.528-6.261-1.808-6.846-5.17-.289-1.662.045-3.444 1.093-4.787 1.145-1.468 2.69-1.693 4.285-2.112 2.842.629 5.613 1.62 6.313 4.971.707 3.382-1.498 6.571-4.845 7.098zm6.839-6.71c-.558-4.211-3.721-6.304-7.37-6.794-.124-.194-.308-.343-.555-.36-4.798-.318-8.465 3.748-7.858 8.646.56 4.52 4.396 7.903 8.886 7.375 4.325-.509 7.49-4.405 6.897-8.867zM85.199 73.292c-2.046.413-4.653-.432-6.676-.716l-6.81-.953c-9.246-1.294-18.797-3.363-28.14-3.69a.703.703 0 0 0-.457-.216c-2.459-.184-1.18-6.796-1.031-8.251.305-2.966.112-7.376 3.865-8.032 2.04-.356 4.87.307 6.92.507 2.517.244 5.029.532 7.536.86 4.559.595 9.1 1.317 13.616 2.183 2.259.434 4.51.9 6.753 1.404 2.548.571 5.874.799 7.771 2.645 1.411 1.374.98 1.853.788 3.773-.115 1.14-.228 2.281-.342 3.421-.29 2.908-.322 6.363-3.793 7.065zm6.105-8.859c.28-2.813 1.538-6.692-1.61-8.063-4.814-2.097-10.953-2.688-16.087-3.65a217.166 217.166 0 0 0-17.051-2.515 215.06 215.06 0 0 0-8.93-.785c-1.521-.098-3.183-.279-4.567.541-3.428 2.03-2.882 8.642-3.16 11.974-.23 2.77-.98 7.98 3.232 7.466a.714.714 0 0 0 .38-.174c5.127 1.276 10.504 1.75 15.71 2.584 5.66.906 11.331 1.738 16.999 2.592 3.46.52 8.572 2.262 11.944.385 3.35-1.864 2.815-7.093 3.14-10.355zM23.69 149.267c-2.767 5.26-4.575 11.168-7.013 16.601-.139.308.33.482.486.197 2.834-5.17 6.079-10.807 7.546-16.534.155-.604-.767-.746-1.02-.264"/>
        <path d="M24.738 150.388c-1.843 3.662-3.15 7.874-4.581 11.744-.161.435.421.687.603.267 1.637-3.779 3.59-7.693 4.8-11.647.188-.61-.544-.918-.822-.364M27.77 150.61c-1.116 1.274-1.596 3.02-2.237 4.538a152.745 152.745 0 0 0-2.152 5.338c-.175.463.554.74.782.3a151 151 0 0 0 2.54-5.189c.709-1.51 1.69-3.033 1.87-4.682.046-.403-.53-.615-.802-.305M30.661 151.043c-3.601 5.55-4.449 13.04-8.345 18.347-.21.286.177.72.437.452 1.94-2.004 2.885-4.74 4.046-7.279 1.624-3.555 3.721-7.212 4.714-11.01.136-.518-.503-1.047-.852-.51M33.732 151.33c-2.042 2.4-3.149 5.955-4.255 8.77-.227.58.765.951 1.048.387.774-1.542 1.507-3.1 2.233-4.66.64-1.375 1.48-2.733 1.774-4.206.075-.375-.554-.581-.8-.291M35.484 151.754c-1.8 4.033-3.404 8.48-4.545 12.754-.105.394.395.623.583.244 1.944-3.957 3.654-8.362 4.948-12.586.203-.661-.696-1.06-.986-.412M38.55 151.023c-2.346 3.835-4.078 8.3-5.474 12.546-.189.575.66.936.903.366 1.773-4.15 3.834-8.196 5.575-12.348.241-.575-.658-1.13-1.004-.564M40.564 153.23c-1.849 2.323-2.707 6.128-3.309 9.05-.088.428.559.606.69.19.473-1.498.96-2.994 1.542-4.447.579-1.441 1.437-2.83 1.837-4.327.137-.511-.411-.905-.76-.466M43.436 153.59c-.804 1.026-1.128 2.406-1.568 3.63a173.365 173.365 0 0 0-1.476 4.218c-.195.586.622.937.877.366.606-1.359 1.18-2.73 1.752-4.104.503-1.208 1.195-2.432 1.296-3.747.037-.492-.568-.762-.881-.363M45.999 155.01c-1.233 2.254-2.029 5.147-2.734 7.631-.211.741.73 1.176 1.055.455 1.056-2.342 2.318-5.063 2.832-7.595.13-.642-.83-1.082-1.153-.49M229.692 175.48c-.075-.485-.623-.348-.629.125-.033 3.617-.073 7.746.58 11.248.12.634 1.028.732 1.06-.04.15-3.68-.46-7.754-1.011-11.332M232.701 174.786c-.028-.33-.506-.328-.52.017-.2 5.293-.623 11.43.27 16.57.077.445.659.464.72-.024.663-5.259-.032-11.335-.47-16.563M234.834 175.109c-.023-.426-.665-.418-.676.02-.1 3.792-.003 7.978.92 11.609.119.47.716.2.697-.233-.168-3.797-.722-7.592-.94-11.396M237.895 175.528c-.094-.564-.833-.435-.767.15.576 5.121.81 10.303 1.387 15.418.053.467.717.482.734-.027.176-5.22-.506-10.483-1.354-15.54M240.798 175.784c-.08-.392-.722-.31-.679.08.418 3.874.787 7.798 1.688 11.623.124.525.95.416.91-.107-.298-3.882-1.138-7.758-1.919-11.596M244.584 188.535c-.462-4.175-1.13-8.374-1.865-12.51-.07-.399-.654-.31-.616.093.4 4.184.879 8.41 1.55 12.558.098.602 1 .467.931-.14M249.052 193.226c-.538-5.59-1.854-11.29-3.157-16.744-.122-.515-.899-.42-.82.124.809 5.587 1.709 11.401 3.279 16.823.12.418.737.195.698-.203M251.657 188.389c-.5-4.201-1.49-8.381-2.534-12.472-.152-.595-1.053-.493-.953.146.655 4.218 1.41 8.487 2.614 12.58.152.518.933.251.873-.254"/>
    </g>
</svg>
